<svg width="2754" height="1834" viewBox="0 0 2754 1834" fill="none" xmlns="http://www.w3.org/2000/svg">
<g clip-path="url(#clip0_1519_1609)">
<path fill-rule="evenodd" clip-rule="evenodd" d="M710.127 294.783L49 916.509C181.238 1040.87 332.299 1145.67 496.998 1227.67C542.522 1341.23 613.879 1447.73 711.069 1539.12C1076.72 1882.98 1669.56 1882.98 2035.21 1539.12C2132.4 1447.73 2203.76 1341.23 2249.28 1227.66C2413.98 1145.67 2565.04 1040.87 2697.28 916.509L2036.68 295.289C2036.19 294.824 2035.7 294.359 2035.21 293.895C1669.56 -49.965 1076.72 -49.965 711.069 293.895C710.756 294.191 710.441 294.487 710.127 294.783ZM1971.95 1339.84C1779.28 1400.98 1577.04 1432.3 1373.14 1432.3C1169.24 1432.3 966.998 1400.98 774.336 1339.84C795.211 1365.88 818.258 1390.88 843.483 1414.6C1136 1689.69 1610.27 1689.69 1902.79 1414.6C1928.02 1390.88 1951.07 1365.88 1971.95 1339.84ZM857.062 405.965C906.737 436.827 959.557 463.237 1014.83 484.768C1128.42 529.017 1250.18 551.792 1373.14 551.792C1496.1 551.792 1617.85 529.017 1731.45 484.768C1786.72 463.237 1839.54 436.827 1889.22 405.964C1600.35 147.481 1145.93 147.481 857.062 405.965Z" fill="#3B4158"/>
</g>
<defs>
<clipPath id="clip0_1519_1609">
<rect width="2648.28" height="1761.02" fill="white" transform="translate(49 36)"/>
</clipPath>
</defs>
</svg>
