<svg width="2184" height="1834" viewBox="0 0 2184 1834" fill="none" xmlns="http://www.w3.org/2000/svg">
<g clip-path="url(#clip0_1524_1583)">
<path fill-rule="evenodd" clip-rule="evenodd" d="M616.309 693.47L158.04 1124.43C249.702 1210.63 354.412 1283.28 468.576 1340.11C500.131 1418.83 549.593 1492.65 616.961 1556C870.419 1794.35 1281.35 1794.35 1534.8 1556C1602.17 1492.65 1651.64 1418.83 1683.19 1340.11C1797.35 1283.28 1902.06 1210.63 1993.72 1124.43L1535.83 693.821C1535.49 693.499 1535.15 693.176 1534.8 692.855C1281.35 454.504 870.419 454.504 616.961 692.855C616.744 693.06 616.526 693.265 616.309 693.47ZM1490.95 1417.86C1357.41 1460.25 1217.22 1481.95 1075.88 1481.95C934.548 1481.95 794.362 1460.25 660.816 1417.86C675.286 1435.92 691.261 1453.24 708.745 1469.69C911.511 1660.37 1240.25 1660.37 1443.02 1469.69C1460.5 1453.24 1476.48 1435.92 1490.95 1417.86ZM718.158 770.537C752.591 791.93 789.203 810.236 827.514 825.161C906.256 855.833 990.651 871.619 1075.88 871.619C1161.11 871.619 1245.51 855.833 1324.25 825.161C1362.56 810.236 1399.17 791.93 1433.61 770.536C1233.37 591.366 918.39 591.366 718.158 770.537Z" fill="#E8709B"/>
</g>
<ellipse cx="1076.28" cy="1124.07" rx="210.277" ry="185.074" fill="url(#paint0_linear_1524_1583)"/>
<mask id="path-3-outside-1_1524_1583" maskUnits="userSpaceOnUse" x="32.7091" y="-24.2739" width="2104.39" height="1067.42" fill="black">
<rect fill="white" x="32.7091" y="-24.2739" width="2104.39" height="1067.42"/>
<path d="M157.225 583.7L172.715 560.537L299.362 645.235C312.438 653.98 322.051 664.87 328.203 677.905C334.333 690.836 336.629 704.852 335.091 719.953C333.49 735.013 327.672 750.046 317.636 765.052C307.601 780.057 295.929 791.176 282.623 798.407C269.254 805.597 255.402 808.859 241.069 808.194C226.714 807.425 212.999 802.668 199.923 793.924L73.2764 709.226L88.7669 686.063L213.546 769.512C222.886 775.758 232.572 779.263 242.605 780.025C252.576 780.746 262.188 778.703 271.44 773.897C280.671 768.987 288.847 761.208 295.968 750.56C303.089 739.913 307.155 729.386 308.167 718.979C309.118 708.531 307.335 698.868 302.819 689.99C298.282 681.008 291.344 673.395 282.004 667.148L157.225 583.7Z"/>
<path d="M439.08 610.302L416.858 629.266L331.757 399.378L353.637 380.707L567.282 500.898L545.061 519.862L367.012 417.151L365.644 418.318L439.08 610.302ZM388.936 534.926L478.507 458.489L494.553 477.292L404.982 553.729L388.936 534.926Z"/>
<path d="M646.106 455.633L549.854 246.62L620.478 214.097C636.875 206.546 651.641 203.333 664.777 204.459C677.95 205.485 689.356 209.839 698.997 217.522C708.637 225.205 716.293 235.204 721.964 247.519C727.635 259.834 730.272 272.186 729.875 284.574C729.545 296.931 725.554 308.5 717.901 319.281C710.217 329.994 698.245 339.095 681.983 346.584L631.363 369.895L621.023 347.442L670.827 324.507C682.054 319.337 690.176 313.247 695.194 306.235C700.212 299.224 702.732 291.713 702.754 283.704C702.814 275.595 700.916 267.356 697.062 258.987C693.208 250.618 688.197 243.855 682.028 238.696C675.927 233.506 668.579 230.623 659.984 230.045C651.358 229.4 641.363 231.693 630.001 236.926L585.504 257.417L671.416 443.978L646.106 455.633Z"/>
<path d="M1299.47 177.275L1296.82 199.589L1208.01 189.041L1210.66 166.726L1299.47 177.275ZM1241.42 128.741L1267.75 131.868L1248.35 295.214C1247.47 302.652 1247.88 308.359 1249.6 312.334C1251.4 316.244 1253.93 319.034 1257.2 320.705C1260.56 322.311 1264.17 323.343 1268.04 323.802C1270.94 324.147 1273.34 324.281 1275.23 324.204C1277.13 324.053 1278.66 323.932 1279.8 323.842L1282.35 348.132C1280.48 348.589 1277.91 348.963 1274.63 349.252C1271.34 349.616 1267.25 349.507 1262.34 348.923C1254.9 348.04 1247.8 345.575 1241.04 341.528C1234.35 337.49 1229.05 331.92 1225.15 324.818C1221.31 317.725 1219.99 309.194 1221.17 299.227L1241.42 128.741Z"/>
<path d="M1488.17 413.651C1473.78 407.682 1462.57 399.021 1454.55 387.666C1446.6 376.339 1442.13 363.256 1441.15 348.414C1440.23 333.602 1443.19 317.962 1450.02 301.494C1456.91 284.888 1465.93 271.64 1477.09 261.751C1488.31 251.891 1500.74 245.774 1514.38 243.4C1528.08 241.055 1542.13 242.866 1556.52 248.835C1570.91 254.803 1582.08 263.45 1590.04 274.776C1598.06 286.131 1602.51 299.25 1603.4 314.132C1604.35 329.042 1601.38 344.8 1594.5 361.406C1587.67 377.874 1578.65 391.004 1567.46 400.795C1556.33 410.615 1543.91 416.697 1530.21 419.042C1516.58 421.416 1502.56 419.619 1488.17 413.651ZM1497.3 391.647C1508.23 396.181 1518.38 397.109 1527.77 394.431C1537.15 391.753 1545.43 386.551 1552.61 378.823C1559.78 371.096 1565.58 361.904 1570 351.249C1574.42 340.593 1576.84 329.961 1577.27 319.353C1577.69 308.744 1575.55 299.139 1570.85 290.539C1566.15 281.938 1558.33 275.371 1547.39 270.838C1536.46 266.304 1526.29 265.411 1516.88 268.158C1507.47 270.905 1499.16 276.177 1491.95 283.973C1484.75 291.77 1478.93 300.996 1474.52 311.651C1470.1 322.307 1467.69 332.905 1467.29 343.444C1466.89 353.983 1469.06 363.519 1473.8 372.05C1478.53 380.581 1486.36 387.114 1497.3 391.647Z"/>
<path d="M1646.27 570.016C1642.75 567.233 1639.83 564.456 1637.53 561.687C1635.19 558.977 1633.69 556.94 1633.05 555.576L1652.82 541.404C1656.86 546.688 1660.95 550.685 1665.11 553.394C1669.27 556.104 1674.08 557.083 1679.54 556.333C1685.01 555.688 1691.73 552.922 1699.68 548.037L1711.92 540.515L1769.27 364.789L1791.85 382.606L1744.07 520.083L1745.48 521.196L1868.06 442.738L1890.65 460.555L1710.64 570.425C1702.53 575.381 1694.76 578.645 1687.32 580.216C1679.83 581.846 1672.68 581.783 1665.86 580.027C1659.09 578.318 1652.57 574.981 1646.27 570.016Z"/>
<path d="M2049 709.62L2029.55 694.304C2031.88 690.76 2033.71 686.705 2035.02 682.141C2036.44 677.593 2036.7 672.593 2035.8 667.14C2034.89 661.687 2032.17 655.839 2027.64 649.595C2021.44 641.048 2014.3 635.355 2006.22 632.517C1998.25 629.696 1991.26 630.464 1985.26 634.82C1979.93 638.692 1977.12 643.69 1976.85 649.814C1976.57 655.938 1978.39 663.87 1982.32 673.61L1992.28 698.038C1998.31 712.725 2000.43 725.397 1998.63 736.052C1996.89 746.662 1991.14 755.51 1981.38 762.595C1973.38 768.403 1964.55 771.292 1954.9 771.261C1945.3 771.291 1935.71 768.535 1926.13 762.992C1916.55 757.448 1907.83 749.251 1899.95 738.401C1889.61 724.155 1884.14 710.121 1883.55 696.297C1882.96 682.474 1887.7 670.007 1897.77 658.897L1917.65 675.568C1911.54 682.965 1908.57 690.724 1908.73 698.847C1908.93 707.031 1912.22 715.518 1918.6 724.308C1925.86 734.31 1933.75 740.711 1942.26 743.51C1950.87 746.327 1958.18 745.557 1964.18 741.2C1969.03 737.68 1971.86 733.034 1972.67 727.264C1973.54 721.449 1972.24 714.432 1968.77 706.212L1957.33 678.974C1951.08 663.983 1948.96 651.177 1950.97 640.556C1953.08 629.951 1958.95 621.15 1968.59 614.153C1976.47 608.433 1985.05 605.585 1994.32 605.61C2003.64 605.695 2012.82 608.333 2021.87 613.523C2030.95 618.774 2039.06 626.31 2046.19 636.13C2056.22 649.951 2061.07 663.002 2060.73 675.282C2060.43 687.624 2056.52 699.07 2049 709.62Z"/>
</mask>
<path d="M157.225 583.7L172.715 560.537L299.362 645.235C312.438 653.98 322.051 664.87 328.203 677.905C334.333 690.836 336.629 704.852 335.091 719.953C333.49 735.013 327.672 750.046 317.636 765.052C307.601 780.057 295.929 791.176 282.623 798.407C269.254 805.597 255.402 808.859 241.069 808.194C226.714 807.425 212.999 802.668 199.923 793.924L73.2764 709.226L88.7669 686.063L213.546 769.512C222.886 775.758 232.572 779.263 242.605 780.025C252.576 780.746 262.188 778.703 271.44 773.897C280.671 768.987 288.847 761.208 295.968 750.56C303.089 739.913 307.155 729.386 308.167 718.979C309.118 708.531 307.335 698.868 302.819 689.99C298.282 681.008 291.344 673.395 282.004 667.148L157.225 583.7Z" fill="#E8709B"/>
<path d="M439.08 610.302L416.858 629.266L331.757 399.378L353.637 380.707L567.282 500.898L545.061 519.862L367.012 417.151L365.644 418.318L439.08 610.302ZM388.936 534.926L478.507 458.489L494.553 477.292L404.982 553.729L388.936 534.926Z" fill="#E8709B"/>
<path d="M646.106 455.633L549.854 246.62L620.478 214.097C636.875 206.546 651.641 203.333 664.777 204.459C677.95 205.485 689.356 209.839 698.997 217.522C708.637 225.205 716.293 235.204 721.964 247.519C727.635 259.834 730.272 272.186 729.875 284.574C729.545 296.931 725.554 308.5 717.901 319.281C710.217 329.994 698.245 339.095 681.983 346.584L631.363 369.895L621.023 347.442L670.827 324.507C682.054 319.337 690.176 313.247 695.194 306.235C700.212 299.224 702.732 291.713 702.754 283.704C702.814 275.595 700.916 267.356 697.062 258.987C693.208 250.618 688.197 243.855 682.028 238.696C675.927 233.506 668.579 230.623 659.984 230.045C651.358 229.4 641.363 231.693 630.001 236.926L585.504 257.417L671.416 443.978L646.106 455.633Z" fill="#E8709B"/>
<path d="M1299.47 177.275L1296.82 199.589L1208.01 189.041L1210.66 166.726L1299.47 177.275ZM1241.42 128.741L1267.75 131.868L1248.35 295.214C1247.47 302.652 1247.88 308.359 1249.6 312.334C1251.4 316.244 1253.93 319.034 1257.2 320.705C1260.56 322.311 1264.17 323.343 1268.04 323.802C1270.94 324.147 1273.34 324.281 1275.23 324.204C1277.13 324.053 1278.66 323.932 1279.8 323.842L1282.35 348.132C1280.48 348.589 1277.91 348.963 1274.63 349.252C1271.34 349.616 1267.25 349.507 1262.34 348.923C1254.9 348.04 1247.8 345.575 1241.04 341.528C1234.35 337.49 1229.05 331.92 1225.15 324.818C1221.31 317.725 1219.99 309.194 1221.17 299.227L1241.42 128.741Z" fill="#E8709B"/>
<path d="M1488.17 413.651C1473.78 407.682 1462.57 399.021 1454.55 387.666C1446.6 376.339 1442.13 363.256 1441.15 348.414C1440.23 333.602 1443.19 317.962 1450.02 301.494C1456.91 284.888 1465.93 271.64 1477.09 261.751C1488.31 251.891 1500.74 245.774 1514.38 243.4C1528.08 241.055 1542.13 242.866 1556.52 248.835C1570.91 254.803 1582.08 263.45 1590.04 274.776C1598.06 286.131 1602.51 299.25 1603.4 314.132C1604.35 329.042 1601.38 344.8 1594.5 361.406C1587.67 377.874 1578.65 391.004 1567.46 400.795C1556.33 410.615 1543.91 416.697 1530.21 419.042C1516.58 421.416 1502.56 419.619 1488.17 413.651ZM1497.3 391.647C1508.23 396.181 1518.38 397.109 1527.77 394.431C1537.15 391.753 1545.43 386.551 1552.61 378.823C1559.78 371.096 1565.58 361.904 1570 351.249C1574.42 340.593 1576.84 329.961 1577.27 319.353C1577.69 308.744 1575.55 299.139 1570.85 290.539C1566.15 281.938 1558.33 275.371 1547.39 270.838C1536.46 266.304 1526.29 265.411 1516.88 268.158C1507.47 270.905 1499.16 276.177 1491.95 283.973C1484.75 291.77 1478.93 300.996 1474.52 311.651C1470.1 322.307 1467.69 332.905 1467.29 343.444C1466.89 353.983 1469.06 363.519 1473.8 372.05C1478.53 380.581 1486.36 387.114 1497.3 391.647Z" fill="#E8709B"/>
<path d="M1646.27 570.016C1642.75 567.233 1639.83 564.456 1637.53 561.687C1635.19 558.977 1633.69 556.94 1633.05 555.576L1652.82 541.404C1656.86 546.688 1660.95 550.685 1665.11 553.394C1669.27 556.104 1674.08 557.083 1679.54 556.333C1685.01 555.688 1691.73 552.922 1699.68 548.037L1711.92 540.515L1769.27 364.789L1791.85 382.606L1744.07 520.083L1745.48 521.196L1868.06 442.738L1890.65 460.555L1710.64 570.425C1702.53 575.381 1694.76 578.645 1687.32 580.216C1679.83 581.846 1672.68 581.783 1665.86 580.027C1659.09 578.318 1652.57 574.981 1646.27 570.016Z" fill="#E8709B"/>
<path d="M2049 709.62L2029.55 694.304C2031.88 690.76 2033.71 686.705 2035.02 682.141C2036.44 677.593 2036.7 672.593 2035.8 667.14C2034.89 661.687 2032.17 655.839 2027.64 649.595C2021.44 641.048 2014.3 635.355 2006.22 632.517C1998.25 629.696 1991.26 630.464 1985.26 634.82C1979.93 638.692 1977.12 643.69 1976.85 649.814C1976.57 655.938 1978.39 663.87 1982.32 673.61L1992.28 698.038C1998.31 712.725 2000.43 725.397 1998.63 736.052C1996.89 746.662 1991.14 755.51 1981.38 762.595C1973.38 768.403 1964.55 771.292 1954.9 771.261C1945.3 771.291 1935.71 768.535 1926.13 762.992C1916.55 757.448 1907.83 749.251 1899.95 738.401C1889.61 724.155 1884.14 710.121 1883.55 696.297C1882.96 682.474 1887.7 670.007 1897.77 658.897L1917.65 675.568C1911.54 682.965 1908.57 690.724 1908.73 698.847C1908.93 707.031 1912.22 715.518 1918.6 724.308C1925.86 734.31 1933.75 740.711 1942.26 743.51C1950.87 746.327 1958.18 745.557 1964.18 741.2C1969.03 737.68 1971.86 733.034 1972.67 727.264C1973.54 721.449 1972.24 714.432 1968.77 706.212L1957.33 678.974C1951.08 663.983 1948.96 651.177 1950.97 640.556C1953.08 629.951 1958.95 621.15 1968.59 614.153C1976.47 608.433 1985.05 605.585 1994.32 605.61C2003.64 605.695 2012.82 608.333 2021.87 613.523C2030.95 618.774 2039.06 626.31 2046.19 636.13C2056.22 649.951 2061.07 663.002 2060.73 675.282C2060.43 687.624 2056.52 699.07 2049 709.62Z" fill="#E8709B"/>
<path d="M157.225 583.7L172.715 560.537L299.362 645.235C312.438 653.98 322.051 664.87 328.203 677.905C334.333 690.836 336.629 704.852 335.091 719.953C333.49 735.013 327.672 750.046 317.636 765.052C307.601 780.057 295.929 791.176 282.623 798.407C269.254 805.597 255.402 808.859 241.069 808.194C226.714 807.425 212.999 802.668 199.923 793.924L73.2764 709.226L88.7669 686.063L213.546 769.512C222.886 775.758 232.572 779.263 242.605 780.025C252.576 780.746 262.188 778.703 271.44 773.897C280.671 768.987 288.847 761.208 295.968 750.56C303.089 739.913 307.155 729.386 308.167 718.979C309.118 708.531 307.335 698.868 302.819 689.99C298.282 681.008 291.344 673.395 282.004 667.148L157.225 583.7Z" stroke="#E8709B" stroke-width="42" mask="url(#path-3-outside-1_1524_1583)"/>
<path d="M439.08 610.302L416.858 629.266L331.757 399.378L353.637 380.707L567.282 500.898L545.061 519.862L367.012 417.151L365.644 418.318L439.08 610.302ZM388.936 534.926L478.507 458.489L494.553 477.292L404.982 553.729L388.936 534.926Z" stroke="#E8709B" stroke-width="42" mask="url(#path-3-outside-1_1524_1583)"/>
<path d="M646.106 455.633L549.854 246.62L620.478 214.097C636.875 206.546 651.641 203.333 664.777 204.459C677.95 205.485 689.356 209.839 698.997 217.522C708.637 225.205 716.293 235.204 721.964 247.519C727.635 259.834 730.272 272.186 729.875 284.574C729.545 296.931 725.554 308.5 717.901 319.281C710.217 329.994 698.245 339.095 681.983 346.584L631.363 369.895L621.023 347.442L670.827 324.507C682.054 319.337 690.176 313.247 695.194 306.235C700.212 299.224 702.732 291.713 702.754 283.704C702.814 275.595 700.916 267.356 697.062 258.987C693.208 250.618 688.197 243.855 682.028 238.696C675.927 233.506 668.579 230.623 659.984 230.045C651.358 229.4 641.363 231.693 630.001 236.926L585.504 257.417L671.416 443.978L646.106 455.633Z" stroke="#E8709B" stroke-width="42" mask="url(#path-3-outside-1_1524_1583)"/>
<path d="M1299.47 177.275L1296.82 199.589L1208.01 189.041L1210.66 166.726L1299.47 177.275ZM1241.42 128.741L1267.75 131.868L1248.35 295.214C1247.47 302.652 1247.88 308.359 1249.6 312.334C1251.4 316.244 1253.93 319.034 1257.2 320.705C1260.56 322.311 1264.17 323.343 1268.04 323.802C1270.94 324.147 1273.34 324.281 1275.23 324.204C1277.13 324.053 1278.66 323.932 1279.8 323.842L1282.35 348.132C1280.48 348.589 1277.91 348.963 1274.63 349.252C1271.34 349.616 1267.25 349.507 1262.34 348.923C1254.9 348.04 1247.8 345.575 1241.04 341.528C1234.35 337.49 1229.05 331.92 1225.15 324.818C1221.31 317.725 1219.99 309.194 1221.17 299.227L1241.42 128.741Z" stroke="#E8709B" stroke-width="42" mask="url(#path-3-outside-1_1524_1583)"/>
<path d="M1488.17 413.651C1473.78 407.682 1462.57 399.021 1454.55 387.666C1446.6 376.339 1442.13 363.256 1441.15 348.414C1440.23 333.602 1443.19 317.962 1450.02 301.494C1456.91 284.888 1465.93 271.64 1477.09 261.751C1488.31 251.891 1500.74 245.774 1514.38 243.4C1528.08 241.055 1542.13 242.866 1556.52 248.835C1570.91 254.803 1582.08 263.45 1590.04 274.776C1598.06 286.131 1602.51 299.25 1603.4 314.132C1604.35 329.042 1601.38 344.8 1594.5 361.406C1587.67 377.874 1578.65 391.004 1567.46 400.795C1556.33 410.615 1543.91 416.697 1530.21 419.042C1516.58 421.416 1502.56 419.619 1488.17 413.651ZM1497.3 391.647C1508.23 396.181 1518.38 397.109 1527.77 394.431C1537.15 391.753 1545.43 386.551 1552.61 378.823C1559.78 371.096 1565.58 361.904 1570 351.249C1574.42 340.593 1576.84 329.961 1577.27 319.353C1577.69 308.744 1575.55 299.139 1570.85 290.539C1566.15 281.938 1558.33 275.371 1547.39 270.838C1536.46 266.304 1526.29 265.411 1516.88 268.158C1507.47 270.905 1499.16 276.177 1491.95 283.973C1484.75 291.77 1478.93 300.996 1474.52 311.651C1470.1 322.307 1467.69 332.905 1467.29 343.444C1466.89 353.983 1469.06 363.519 1473.8 372.05C1478.53 380.581 1486.36 387.114 1497.3 391.647Z" stroke="#E8709B" stroke-width="42" mask="url(#path-3-outside-1_1524_1583)"/>
<path d="M1646.27 570.016C1642.75 567.233 1639.83 564.456 1637.53 561.687C1635.19 558.977 1633.69 556.94 1633.05 555.576L1652.82 541.404C1656.86 546.688 1660.95 550.685 1665.11 553.394C1669.27 556.104 1674.08 557.083 1679.54 556.333C1685.01 555.688 1691.73 552.922 1699.68 548.037L1711.92 540.515L1769.27 364.789L1791.85 382.606L1744.07 520.083L1745.48 521.196L1868.06 442.738L1890.65 460.555L1710.64 570.425C1702.53 575.381 1694.76 578.645 1687.32 580.216C1679.83 581.846 1672.68 581.783 1665.86 580.027C1659.09 578.318 1652.57 574.981 1646.27 570.016Z" stroke="#E8709B" stroke-width="42" mask="url(#path-3-outside-1_1524_1583)"/>
<path d="M2049 709.62L2029.55 694.304C2031.88 690.76 2033.71 686.705 2035.02 682.141C2036.44 677.593 2036.7 672.593 2035.8 667.14C2034.89 661.687 2032.17 655.839 2027.64 649.595C2021.44 641.048 2014.3 635.355 2006.22 632.517C1998.25 629.696 1991.26 630.464 1985.26 634.82C1979.93 638.692 1977.12 643.69 1976.85 649.814C1976.57 655.938 1978.39 663.87 1982.32 673.61L1992.28 698.038C1998.31 712.725 2000.43 725.397 1998.63 736.052C1996.89 746.662 1991.14 755.51 1981.38 762.595C1973.38 768.403 1964.55 771.292 1954.9 771.261C1945.3 771.291 1935.71 768.535 1926.13 762.992C1916.55 757.448 1907.83 749.251 1899.95 738.401C1889.61 724.155 1884.14 710.121 1883.55 696.297C1882.96 682.474 1887.7 670.007 1897.77 658.897L1917.65 675.568C1911.54 682.965 1908.57 690.724 1908.73 698.847C1908.93 707.031 1912.22 715.518 1918.6 724.308C1925.86 734.31 1933.75 740.711 1942.26 743.51C1950.87 746.327 1958.18 745.557 1964.18 741.2C1969.03 737.68 1971.86 733.034 1972.67 727.264C1973.54 721.449 1972.24 714.432 1968.77 706.212L1957.33 678.974C1951.08 663.983 1948.96 651.177 1950.97 640.556C1953.08 629.951 1958.95 621.15 1968.59 614.153C1976.47 608.433 1985.05 605.585 1994.32 605.61C2003.64 605.695 2012.82 608.333 2021.87 613.523C2030.95 618.774 2039.06 626.31 2046.19 636.13C2056.22 649.951 2061.07 663.002 2060.73 675.282C2060.43 687.624 2056.52 699.07 2049 709.62Z" stroke="#E8709B" stroke-width="42" mask="url(#path-3-outside-1_1524_1583)"/>
<defs>
<linearGradient id="paint0_linear_1524_1583" x1="1076.28" y1="939" x2="1076.28" y2="1309.15" gradientUnits="userSpaceOnUse">
<stop stop-color="#9B23C6"/>
<stop offset="1" stop-color="#9B23C6" stop-opacity="0"/>
</linearGradient>
<clipPath id="clip0_1524_1583">
<rect width="1835.68" height="1220.67" fill="white" transform="translate(158.04 514.092)"/>
</clipPath>
</defs>
</svg>
