<svg width="2754" height="1876" viewBox="0 0 2754 1876" fill="none" xmlns="http://www.w3.org/2000/svg">
<g clip-path="url(#clip0_1521_1697)">
<rect width="2754" height="1876" fill="white"/>
<g clip-path="url(#clip1_1521_1697)">
<path fill-rule="evenodd" clip-rule="evenodd" d="M917.268 792.378L459 1223.34C550.662 1309.54 655.372 1382.18 769.535 1439.02C801.091 1517.74 850.553 1591.56 917.921 1654.91C1171.38 1893.26 1582.31 1893.26 1835.76 1654.91C1903.13 1591.56 1952.59 1517.74 1984.15 1439.02C2098.31 1382.18 2203.02 1309.54 2294.68 1223.34L1836.79 792.729C1836.45 792.407 1836.11 792.085 1835.76 791.763C1582.31 553.412 1171.38 553.412 917.921 791.763C917.704 791.968 917.486 792.173 917.268 792.378ZM1791.91 1516.77C1658.37 1559.16 1518.18 1580.86 1376.84 1580.86C1235.51 1580.86 1095.32 1559.16 961.775 1516.77C976.245 1534.82 992.22 1552.15 1009.71 1568.59C1212.47 1759.28 1541.21 1759.28 1743.98 1568.59C1761.46 1552.15 1777.44 1534.82 1791.91 1516.77ZM1019.12 869.446C1053.55 890.838 1090.16 909.144 1128.47 924.069C1207.22 954.741 1291.61 970.528 1376.84 970.528C1462.07 970.528 1546.47 954.741 1625.21 924.069C1663.52 909.144 1700.13 890.838 1734.57 869.445C1534.33 690.274 1219.35 690.275 1019.12 869.446Z" fill="#3B4158"/>
</g>
<ellipse cx="1376.84" cy="1270.36" rx="140.435" ry="126.433" fill="#9B23C6"/>
<g filter="url(#filter0_dddddd_1521_1697)">
<mask id="path-3-outside-1_1521_1697" maskUnits="userSpaceOnUse" x="133.894" y="-23.1587" width="2576.34" height="1343.68" fill="black">
<rect fill="white" x="133.894" y="-23.1587" width="2576.34" height="1343.68"/>
<path d="M277.827 742.993L296.907 713.509L452.899 821.322C469.005 832.453 480.846 846.315 488.422 862.907C495.973 879.367 498.801 897.208 496.906 916.431C494.934 935.6 487.768 954.736 475.407 973.837C463.046 992.938 448.671 1007.09 432.281 1016.29C415.814 1025.45 398.753 1029.6 381.098 1028.75C363.417 1027.77 346.524 1021.72 330.419 1010.59L174.426 902.776L193.506 873.292L347.198 979.514C358.702 987.465 370.633 991.926 382.991 992.896C395.272 993.814 407.111 991.214 418.507 985.096C429.877 978.845 439.948 968.944 448.718 955.391C457.489 941.838 462.498 928.438 463.745 915.191C464.915 901.891 462.719 889.591 457.156 878.29C451.568 866.858 443.022 857.166 431.519 849.215L277.827 742.993Z"/>
<path d="M624.991 776.856L597.62 800.994L492.8 508.37L519.75 484.603L782.9 637.595L755.529 661.733L536.224 530.993L534.54 532.478L624.991 776.856ZM563.228 680.909L673.554 583.612L693.318 607.546L582.992 704.843L563.228 680.909Z"/>
<path d="M879.988 579.977L761.433 313.923L848.421 272.525C868.618 262.913 886.806 258.823 902.985 260.256C919.21 261.562 933.259 267.105 945.134 276.885C957.009 286.665 966.438 299.393 973.424 315.068C980.409 330.744 983.656 346.466 983.167 362.235C982.761 377.964 977.845 392.691 968.419 406.414C958.954 420.051 944.208 431.635 924.179 441.167L861.829 470.84L849.093 442.26L910.437 413.066C924.265 406.485 934.269 398.732 940.45 389.808C946.63 380.883 949.735 371.323 949.762 361.127C949.835 350.805 947.498 340.318 942.751 329.665C938.005 319.013 931.832 310.403 924.234 303.837C916.719 297.231 907.668 293.56 897.082 292.825C886.456 292.004 874.146 294.923 860.151 301.583L805.343 327.667L911.163 565.141L879.988 579.977Z"/>
<path d="M1684.75 225.653L1681.48 254.058L1572.09 240.63L1575.35 212.226L1684.75 225.653ZM1613.24 163.874L1645.68 167.856L1621.78 375.778C1620.69 385.247 1621.2 392.511 1623.32 397.571C1625.53 402.548 1628.65 406.1 1632.68 408.227C1636.81 410.27 1641.26 411.584 1646.03 412.169C1649.6 412.608 1652.55 412.778 1654.89 412.681C1657.23 412.488 1659.11 412.335 1660.52 412.219L1663.65 443.138C1661.35 443.72 1658.19 444.196 1654.15 444.564C1650.1 445.027 1645.05 444.888 1639.01 444.146C1629.85 443.021 1621.1 439.883 1612.77 434.732C1604.54 429.593 1598.01 422.503 1593.2 413.462C1588.48 404.433 1586.84 393.574 1588.3 380.887L1613.24 163.874Z"/>
<path d="M1917.17 526.537C1899.44 518.94 1885.64 507.915 1875.76 493.461C1865.96 479.044 1860.46 462.389 1859.25 443.498C1858.13 424.643 1861.77 404.734 1870.18 383.772C1878.66 362.634 1889.78 345.772 1903.52 333.184C1917.34 320.632 1932.65 312.846 1949.45 309.824C1966.33 306.839 1983.63 309.145 2001.36 316.742C2019.08 324.339 2032.84 335.346 2042.64 349.764C2052.52 364.217 2058.01 380.916 2059.09 399.859C2060.27 418.839 2056.61 438.897 2048.13 460.035C2039.72 480.997 2028.62 497.71 2014.83 510.173C2001.12 522.673 1985.83 530.415 1968.95 533.4C1952.16 536.422 1934.9 534.134 1917.17 526.537ZM1928.41 498.529C1941.87 504.3 1954.38 505.481 1965.94 502.073C1977.5 498.664 1987.69 492.042 1996.54 482.205C2005.38 472.369 2012.52 460.669 2017.96 447.106C2023.4 433.542 2026.39 420.009 2026.91 406.505C2027.44 393.001 2024.8 380.776 2019.01 369.828C2013.21 358.88 2003.58 350.521 1990.12 344.75C1976.65 338.979 1964.12 337.842 1952.53 341.339C1940.94 344.836 1930.71 351.546 1921.83 361.47C1912.95 371.395 1905.79 383.139 1900.35 396.702C1894.91 410.266 1891.94 423.755 1891.45 437.171C1890.96 450.586 1893.63 462.724 1899.46 473.584C1905.3 484.443 1914.94 492.758 1928.41 498.529Z"/>
<path d="M2111.91 725.576C2107.56 722.032 2103.97 718.498 2101.14 714.974C2098.25 711.524 2096.41 708.931 2095.62 707.194L2119.97 689.155C2124.94 695.881 2129.99 700.968 2135.11 704.417C2140.24 707.866 2146.16 709.113 2152.88 708.158C2159.62 707.337 2167.89 703.817 2177.69 697.598L2192.76 688.023L2263.4 464.341L2291.22 487.02L2232.36 662.015L2234.1 663.432L2385.09 563.562L2412.9 586.241L2191.19 726.095C2181.2 732.404 2171.63 736.559 2162.46 738.558C2153.24 740.633 2144.43 740.553 2136.03 738.318C2127.7 736.143 2119.66 731.895 2111.91 725.576Z"/>
<path d="M2607.95 903.278L2584 883.782C2586.87 879.27 2589.12 874.109 2590.73 868.299C2592.48 862.51 2592.8 856.145 2591.69 849.204C2590.57 842.263 2587.23 834.819 2581.64 826.871C2574 815.992 2565.21 808.746 2555.26 805.133C2545.44 801.542 2536.83 802.519 2529.44 808.064C2522.87 812.993 2519.42 819.355 2519.08 827.15C2518.74 834.945 2520.99 845.042 2525.82 857.44L2538.08 888.535C2545.51 907.23 2548.12 923.36 2545.91 936.922C2543.76 950.429 2536.68 961.691 2524.66 970.709C2514.81 978.103 2503.94 981.78 2492.05 981.741C2480.22 981.779 2468.41 978.27 2456.61 971.214C2444.81 964.158 2434.07 953.724 2424.36 939.912C2411.63 921.78 2404.89 903.915 2404.16 886.319C2403.43 868.723 2409.27 852.854 2421.68 838.712L2446.17 859.933C2438.64 869.348 2434.98 879.225 2435.17 889.565C2435.42 899.982 2439.47 910.785 2447.33 921.974C2456.28 934.705 2465.99 942.853 2476.47 946.417C2487.09 950.002 2496.09 949.021 2503.48 943.476C2509.45 938.995 2512.94 933.082 2513.94 925.736C2515.01 918.334 2513.41 909.402 2509.14 898.939L2495.04 864.268C2487.34 845.186 2484.73 828.885 2487.2 815.365C2489.8 801.866 2497.04 790.663 2508.91 781.757C2518.62 774.476 2529.18 770.851 2540.61 770.882C2552.08 770.991 2563.39 774.349 2574.53 780.956C2585.72 787.639 2595.71 797.231 2604.49 809.732C2616.85 827.324 2622.82 843.937 2622.4 859.569C2622.03 875.278 2617.21 889.848 2607.95 903.278Z"/>
</mask>
<path d="M277.827 742.993L296.907 713.509L452.899 821.322C469.005 832.453 480.846 846.315 488.422 862.907C495.973 879.367 498.801 897.208 496.906 916.431C494.934 935.6 487.768 954.736 475.407 973.837C463.046 992.938 448.671 1007.09 432.281 1016.29C415.814 1025.45 398.753 1029.6 381.098 1028.75C363.417 1027.77 346.524 1021.72 330.419 1010.59L174.426 902.776L193.506 873.292L347.198 979.514C358.702 987.465 370.633 991.926 382.991 992.896C395.272 993.814 407.111 991.214 418.507 985.096C429.877 978.845 439.948 968.944 448.718 955.391C457.489 941.838 462.498 928.438 463.745 915.191C464.915 901.891 462.719 889.591 457.156 878.29C451.568 866.858 443.022 857.166 431.519 849.215L277.827 742.993Z" fill="#3B4158"/>
<path d="M624.991 776.856L597.62 800.994L492.8 508.37L519.75 484.603L782.9 637.595L755.529 661.733L536.224 530.993L534.54 532.478L624.991 776.856ZM563.228 680.909L673.554 583.612L693.318 607.546L582.992 704.843L563.228 680.909Z" fill="#3B4158"/>
<path d="M879.988 579.977L761.433 313.923L848.421 272.525C868.618 262.913 886.806 258.823 902.985 260.256C919.21 261.562 933.259 267.105 945.134 276.885C957.009 286.665 966.438 299.393 973.424 315.068C980.409 330.744 983.656 346.466 983.167 362.235C982.761 377.964 977.845 392.691 968.419 406.414C958.954 420.051 944.208 431.635 924.179 441.167L861.829 470.84L849.093 442.26L910.437 413.066C924.265 406.485 934.269 398.732 940.45 389.808C946.63 380.883 949.735 371.323 949.762 361.127C949.835 350.805 947.498 340.318 942.751 329.665C938.005 319.013 931.832 310.403 924.234 303.837C916.719 297.231 907.668 293.56 897.082 292.825C886.456 292.004 874.146 294.923 860.151 301.583L805.343 327.667L911.163 565.141L879.988 579.977Z" fill="#3B4158"/>
<path d="M1684.75 225.653L1681.48 254.058L1572.09 240.63L1575.35 212.226L1684.75 225.653ZM1613.24 163.874L1645.68 167.856L1621.78 375.778C1620.69 385.247 1621.2 392.511 1623.32 397.571C1625.53 402.548 1628.65 406.1 1632.68 408.227C1636.81 410.27 1641.26 411.584 1646.03 412.169C1649.6 412.608 1652.55 412.778 1654.89 412.681C1657.23 412.488 1659.11 412.335 1660.52 412.219L1663.65 443.138C1661.35 443.72 1658.19 444.196 1654.15 444.564C1650.1 445.027 1645.05 444.888 1639.01 444.146C1629.85 443.021 1621.1 439.883 1612.77 434.732C1604.54 429.593 1598.01 422.503 1593.2 413.462C1588.48 404.433 1586.84 393.574 1588.3 380.887L1613.24 163.874Z" fill="#3B4158"/>
<path d="M1917.17 526.537C1899.44 518.94 1885.64 507.915 1875.76 493.461C1865.96 479.044 1860.46 462.389 1859.25 443.498C1858.13 424.643 1861.77 404.734 1870.18 383.772C1878.66 362.634 1889.78 345.772 1903.52 333.184C1917.34 320.632 1932.65 312.846 1949.45 309.824C1966.33 306.839 1983.63 309.145 2001.36 316.742C2019.08 324.339 2032.84 335.346 2042.64 349.764C2052.52 364.217 2058.01 380.916 2059.09 399.859C2060.27 418.839 2056.61 438.897 2048.13 460.035C2039.72 480.997 2028.62 497.71 2014.83 510.173C2001.12 522.673 1985.83 530.415 1968.95 533.4C1952.16 536.422 1934.9 534.134 1917.17 526.537ZM1928.41 498.529C1941.87 504.3 1954.38 505.481 1965.94 502.073C1977.5 498.664 1987.69 492.042 1996.54 482.205C2005.38 472.369 2012.52 460.669 2017.96 447.106C2023.4 433.542 2026.39 420.009 2026.91 406.505C2027.44 393.001 2024.8 380.776 2019.01 369.828C2013.21 358.88 2003.58 350.521 1990.12 344.75C1976.65 338.979 1964.12 337.842 1952.53 341.339C1940.94 344.836 1930.71 351.546 1921.83 361.47C1912.95 371.395 1905.79 383.139 1900.35 396.702C1894.91 410.266 1891.94 423.755 1891.45 437.171C1890.96 450.586 1893.63 462.724 1899.46 473.584C1905.3 484.443 1914.94 492.758 1928.41 498.529Z" fill="#3B4158"/>
<path d="M2111.91 725.576C2107.56 722.032 2103.97 718.498 2101.14 714.974C2098.25 711.524 2096.41 708.931 2095.62 707.194L2119.97 689.155C2124.94 695.881 2129.99 700.968 2135.11 704.417C2140.24 707.866 2146.16 709.113 2152.88 708.158C2159.62 707.337 2167.89 703.817 2177.69 697.598L2192.76 688.023L2263.4 464.341L2291.22 487.02L2232.36 662.015L2234.1 663.432L2385.09 563.562L2412.9 586.241L2191.19 726.095C2181.2 732.404 2171.63 736.559 2162.46 738.558C2153.24 740.633 2144.43 740.553 2136.03 738.318C2127.7 736.143 2119.66 731.895 2111.91 725.576Z" fill="#3B4158"/>
<path d="M2607.95 903.278L2584 883.782C2586.87 879.27 2589.12 874.109 2590.73 868.299C2592.48 862.51 2592.8 856.145 2591.69 849.204C2590.57 842.263 2587.23 834.819 2581.64 826.871C2574 815.992 2565.21 808.746 2555.26 805.133C2545.44 801.542 2536.83 802.519 2529.44 808.064C2522.87 812.993 2519.42 819.355 2519.08 827.15C2518.74 834.945 2520.99 845.042 2525.82 857.44L2538.08 888.535C2545.51 907.23 2548.12 923.36 2545.91 936.922C2543.76 950.429 2536.68 961.691 2524.66 970.709C2514.81 978.103 2503.94 981.78 2492.05 981.741C2480.22 981.779 2468.41 978.27 2456.61 971.214C2444.81 964.158 2434.07 953.724 2424.36 939.912C2411.63 921.78 2404.89 903.915 2404.16 886.319C2403.43 868.723 2409.27 852.854 2421.68 838.712L2446.17 859.933C2438.64 869.348 2434.98 879.225 2435.17 889.565C2435.42 899.982 2439.47 910.785 2447.33 921.974C2456.28 934.705 2465.99 942.853 2476.47 946.417C2487.09 950.002 2496.09 949.021 2503.48 943.476C2509.45 938.995 2512.94 933.082 2513.94 925.736C2515.01 918.334 2513.41 909.402 2509.14 898.939L2495.04 864.268C2487.34 845.186 2484.73 828.885 2487.2 815.365C2489.8 801.866 2497.04 790.663 2508.91 781.757C2518.62 774.476 2529.18 770.851 2540.61 770.882C2552.08 770.991 2563.39 774.349 2574.53 780.956C2585.72 787.639 2595.71 797.231 2604.49 809.732C2616.85 827.324 2622.82 843.937 2622.4 859.569C2622.03 875.278 2617.21 889.848 2607.95 903.278Z" fill="#3B4158"/>
<path d="M277.827 742.993L296.907 713.509L452.899 821.322C469.005 832.453 480.846 846.315 488.422 862.907C495.973 879.367 498.801 897.208 496.906 916.431C494.934 935.6 487.768 954.736 475.407 973.837C463.046 992.938 448.671 1007.09 432.281 1016.29C415.814 1025.45 398.753 1029.6 381.098 1028.75C363.417 1027.77 346.524 1021.72 330.419 1010.59L174.426 902.776L193.506 873.292L347.198 979.514C358.702 987.465 370.633 991.926 382.991 992.896C395.272 993.814 407.111 991.214 418.507 985.096C429.877 978.845 439.948 968.944 448.718 955.391C457.489 941.838 462.498 928.438 463.745 915.191C464.915 901.891 462.719 889.591 457.156 878.29C451.568 866.858 443.022 857.166 431.519 849.215L277.827 742.993Z" stroke="#3B4158" stroke-width="39.4148" mask="url(#path-3-outside-1_1521_1697)"/>
<path d="M624.991 776.856L597.62 800.994L492.8 508.37L519.75 484.603L782.9 637.595L755.529 661.733L536.224 530.993L534.54 532.478L624.991 776.856ZM563.228 680.909L673.554 583.612L693.318 607.546L582.992 704.843L563.228 680.909Z" stroke="#3B4158" stroke-width="39.4148" mask="url(#path-3-outside-1_1521_1697)"/>
<path d="M879.988 579.977L761.433 313.923L848.421 272.525C868.618 262.913 886.806 258.823 902.985 260.256C919.21 261.562 933.259 267.105 945.134 276.885C957.009 286.665 966.438 299.393 973.424 315.068C980.409 330.744 983.656 346.466 983.167 362.235C982.761 377.964 977.845 392.691 968.419 406.414C958.954 420.051 944.208 431.635 924.179 441.167L861.829 470.84L849.093 442.26L910.437 413.066C924.265 406.485 934.269 398.732 940.45 389.808C946.63 380.883 949.735 371.323 949.762 361.127C949.835 350.805 947.498 340.318 942.751 329.665C938.005 319.013 931.832 310.403 924.234 303.837C916.719 297.231 907.668 293.56 897.082 292.825C886.456 292.004 874.146 294.923 860.151 301.583L805.343 327.667L911.163 565.141L879.988 579.977Z" stroke="#3B4158" stroke-width="39.4148" mask="url(#path-3-outside-1_1521_1697)"/>
<path d="M1684.75 225.653L1681.48 254.058L1572.09 240.63L1575.35 212.226L1684.75 225.653ZM1613.24 163.874L1645.68 167.856L1621.78 375.778C1620.69 385.247 1621.2 392.511 1623.32 397.571C1625.53 402.548 1628.65 406.1 1632.68 408.227C1636.81 410.27 1641.26 411.584 1646.03 412.169C1649.6 412.608 1652.55 412.778 1654.89 412.681C1657.23 412.488 1659.11 412.335 1660.52 412.219L1663.65 443.138C1661.35 443.72 1658.19 444.196 1654.15 444.564C1650.1 445.027 1645.05 444.888 1639.01 444.146C1629.85 443.021 1621.1 439.883 1612.77 434.732C1604.54 429.593 1598.01 422.503 1593.2 413.462C1588.48 404.433 1586.84 393.574 1588.3 380.887L1613.24 163.874Z" stroke="#3B4158" stroke-width="39.4148" mask="url(#path-3-outside-1_1521_1697)"/>
<path d="M1917.17 526.537C1899.44 518.94 1885.64 507.915 1875.76 493.461C1865.96 479.044 1860.46 462.389 1859.25 443.498C1858.13 424.643 1861.77 404.734 1870.18 383.772C1878.66 362.634 1889.78 345.772 1903.52 333.184C1917.34 320.632 1932.65 312.846 1949.45 309.824C1966.33 306.839 1983.63 309.145 2001.36 316.742C2019.08 324.339 2032.84 335.346 2042.64 349.764C2052.52 364.217 2058.01 380.916 2059.09 399.859C2060.27 418.839 2056.61 438.897 2048.13 460.035C2039.72 480.997 2028.62 497.71 2014.83 510.173C2001.12 522.673 1985.83 530.415 1968.95 533.4C1952.16 536.422 1934.9 534.134 1917.17 526.537ZM1928.41 498.529C1941.87 504.3 1954.38 505.481 1965.94 502.073C1977.5 498.664 1987.69 492.042 1996.54 482.205C2005.38 472.369 2012.52 460.669 2017.96 447.106C2023.4 433.542 2026.39 420.009 2026.91 406.505C2027.44 393.001 2024.8 380.776 2019.01 369.828C2013.21 358.88 2003.58 350.521 1990.12 344.75C1976.65 338.979 1964.12 337.842 1952.53 341.339C1940.94 344.836 1930.71 351.546 1921.83 361.47C1912.95 371.395 1905.79 383.139 1900.35 396.702C1894.91 410.266 1891.94 423.755 1891.45 437.171C1890.96 450.586 1893.63 462.724 1899.46 473.584C1905.3 484.443 1914.94 492.758 1928.41 498.529Z" stroke="#3B4158" stroke-width="39.4148" mask="url(#path-3-outside-1_1521_1697)"/>
<path d="M2111.91 725.576C2107.56 722.032 2103.97 718.498 2101.14 714.974C2098.25 711.524 2096.41 708.931 2095.62 707.194L2119.97 689.155C2124.94 695.881 2129.99 700.968 2135.11 704.417C2140.24 707.866 2146.16 709.113 2152.88 708.158C2159.62 707.337 2167.89 703.817 2177.69 697.598L2192.76 688.023L2263.4 464.341L2291.22 487.02L2232.36 662.015L2234.1 663.432L2385.09 563.562L2412.9 586.241L2191.19 726.095C2181.2 732.404 2171.63 736.559 2162.46 738.558C2153.24 740.633 2144.43 740.553 2136.03 738.318C2127.7 736.143 2119.66 731.895 2111.91 725.576Z" stroke="#3B4158" stroke-width="39.4148" mask="url(#path-3-outside-1_1521_1697)"/>
<path d="M2607.95 903.278L2584 883.782C2586.87 879.27 2589.12 874.109 2590.73 868.299C2592.48 862.51 2592.8 856.145 2591.69 849.204C2590.57 842.263 2587.23 834.819 2581.64 826.871C2574 815.992 2565.21 808.746 2555.26 805.133C2545.44 801.542 2536.83 802.519 2529.44 808.064C2522.87 812.993 2519.42 819.355 2519.08 827.15C2518.74 834.945 2520.99 845.042 2525.82 857.44L2538.08 888.535C2545.51 907.23 2548.12 923.36 2545.91 936.922C2543.76 950.429 2536.68 961.691 2524.66 970.709C2514.81 978.103 2503.94 981.78 2492.05 981.741C2480.22 981.779 2468.41 978.27 2456.61 971.214C2444.81 964.158 2434.07 953.724 2424.36 939.912C2411.63 921.78 2404.89 903.915 2404.16 886.319C2403.43 868.723 2409.27 852.854 2421.68 838.712L2446.17 859.933C2438.64 869.348 2434.98 879.225 2435.17 889.565C2435.42 899.982 2439.47 910.785 2447.33 921.974C2456.28 934.705 2465.99 942.853 2476.47 946.417C2487.09 950.002 2496.09 949.021 2503.48 943.476C2509.45 938.995 2512.94 933.082 2513.94 925.736C2515.01 918.334 2513.41 909.402 2509.14 898.939L2495.04 864.268C2487.34 845.186 2484.73 828.885 2487.2 815.365C2489.8 801.866 2497.04 790.663 2508.91 781.757C2518.62 774.476 2529.18 770.851 2540.61 770.882C2552.08 770.991 2563.39 774.349 2574.53 780.956C2585.72 787.639 2595.71 797.231 2604.49 809.732C2616.85 827.324 2622.82 843.937 2622.4 859.569C2622.03 875.278 2617.21 889.848 2607.95 903.278Z" stroke="#3B4158" stroke-width="39.4148" mask="url(#path-3-outside-1_1521_1697)"/>
</g>
</g>
<defs>
<filter id="filter0_dddddd_1521_1697" x="-10246.7" y="-10252.3" width="23283.1" height="21695.1" filterUnits="userSpaceOnUse" color-interpolation-filters="sRGB">
<feFlood flood-opacity="0" result="BackgroundImageFix"/>
<feColorMatrix in="SourceAlpha" type="matrix" values="0 0 0 0 0 0 0 0 0 0 0 0 0 0 0 0 0 0 127 0" result="hardAlpha"/>
<feOffset/>
<feGaussianBlur stdDeviation="123.741"/>
<feColorMatrix type="matrix" values="0 0 0 0 0.231373 0 0 0 0 0.254902 0 0 0 0 0.345098 0 0 0 1 0"/>
<feBlend mode="normal" in2="BackgroundImageFix" result="effect1_dropShadow_1521_1697"/>
<feColorMatrix in="SourceAlpha" type="matrix" values="0 0 0 0 0 0 0 0 0 0 0 0 0 0 0 0 0 0 127 0" result="hardAlpha"/>
<feOffset/>
<feGaussianBlur stdDeviation="247.481"/>
<feColorMatrix type="matrix" values="0 0 0 0 0.231373 0 0 0 0 0.254902 0 0 0 0 0.345098 0 0 0 1 0"/>
<feBlend mode="normal" in2="effect1_dropShadow_1521_1697" result="effect2_dropShadow_1521_1697"/>
<feColorMatrix in="SourceAlpha" type="matrix" values="0 0 0 0 0 0 0 0 0 0 0 0 0 0 0 0 0 0 127 0" result="hardAlpha"/>
<feOffset/>
<feGaussianBlur stdDeviation="866.185"/>
<feColorMatrix type="matrix" values="0 0 0 0 0.231373 0 0 0 0 0.254902 0 0 0 0 0.345098 0 0 0 1 0"/>
<feBlend mode="normal" in2="effect2_dropShadow_1521_1697" result="effect3_dropShadow_1521_1697"/>
<feColorMatrix in="SourceAlpha" type="matrix" values="0 0 0 0 0 0 0 0 0 0 0 0 0 0 0 0 0 0 127 0" result="hardAlpha"/>
<feOffset/>
<feGaussianBlur stdDeviation="1732.37"/>
<feColorMatrix type="matrix" values="0 0 0 0 0.231373 0 0 0 0 0.254902 0 0 0 0 0.345098 0 0 0 1 0"/>
<feBlend mode="normal" in2="effect3_dropShadow_1521_1697" result="effect4_dropShadow_1521_1697"/>
<feColorMatrix in="SourceAlpha" type="matrix" values="0 0 0 0 0 0 0 0 0 0 0 0 0 0 0 0 0 0 127 0" result="hardAlpha"/>
<feOffset/>
<feGaussianBlur stdDeviation="2969.78"/>
<feColorMatrix type="matrix" values="0 0 0 0 0.231373 0 0 0 0 0.254902 0 0 0 0 0.345098 0 0 0 1 0"/>
<feBlend mode="normal" in2="effect4_dropShadow_1521_1697" result="effect5_dropShadow_1521_1697"/>
<feColorMatrix in="SourceAlpha" type="matrix" values="0 0 0 0 0 0 0 0 0 0 0 0 0 0 0 0 0 0 127 0" result="hardAlpha"/>
<feOffset/>
<feGaussianBlur stdDeviation="5197.11"/>
<feColorMatrix type="matrix" values="0 0 0 0 0.231373 0 0 0 0 0.254902 0 0 0 0 0.345098 0 0 0 1 0"/>
<feBlend mode="normal" in2="effect5_dropShadow_1521_1697" result="effect6_dropShadow_1521_1697"/>
<feBlend mode="normal" in="SourceGraphic" in2="effect6_dropShadow_1521_1697" result="shape"/>
</filter>
<clipPath id="clip0_1521_1697">
<rect width="2754" height="1876" fill="white"/>
</clipPath>
<clipPath id="clip1_1521_1697">
<rect width="1835.68" height="1220.67" fill="white" transform="translate(459 613)"/>
</clipPath>
</defs>
</svg>
