<svg width="2754" height="1834" viewBox="0 0 2754 1834" fill="none" xmlns="http://www.w3.org/2000/svg">
<rect width="2754" height="1834" fill="white" fill-opacity="0.37"/>
<g clip-path="url(#clip0_1519_1609)">
<path fill-rule="evenodd" clip-rule="evenodd" d="M904.307 693.47L446.039 1124.43C537.701 1210.63 642.411 1283.28 756.574 1340.11C788.13 1418.83 837.592 1492.65 904.96 1556C1158.42 1794.35 1569.35 1794.35 1822.8 1556C1890.17 1492.65 1939.63 1418.83 1971.19 1340.11C2085.35 1283.28 2190.06 1210.63 2281.72 1124.43L1823.83 693.821C1823.49 693.499 1823.15 693.176 1822.8 692.855C1569.35 454.504 1158.42 454.504 904.96 692.855C904.743 693.06 904.525 693.265 904.307 693.47ZM1778.95 1417.86C1645.41 1460.25 1505.21 1481.95 1363.88 1481.95C1222.55 1481.95 1082.36 1460.25 948.815 1417.86C963.284 1435.92 979.259 1453.24 996.744 1469.69C1199.51 1660.37 1528.25 1660.37 1731.02 1469.69C1748.5 1453.24 1764.48 1435.92 1778.95 1417.86ZM1006.16 770.537C1040.59 791.93 1077.2 810.236 1115.51 825.161C1194.25 855.833 1278.65 871.619 1363.88 871.619C1449.11 871.619 1533.51 855.833 1612.25 825.161C1650.56 810.236 1687.17 791.93 1721.61 770.536C1521.37 591.366 1206.39 591.366 1006.16 770.537Z" fill="#3B4158"/>
</g>
<ellipse cx="1363.88" cy="1143.01" rx="140.435" ry="123.603" fill="#9B23C6"/>
<mask id="path-3-outside-1_1519_1609" maskUnits="userSpaceOnUse" x="328.249" y="-18.4831" width="2091.29" height="1056.08" fill="black">
<rect fill="white" x="328.249" y="-18.4831" width="2091.29" height="1056.08"/>
<path d="M445.224 583.7L460.714 560.537L587.361 645.235C600.437 653.98 610.05 664.87 616.202 677.905C622.332 690.836 624.628 704.852 623.09 719.953C621.489 735.013 615.671 750.046 605.635 765.052C595.6 780.057 583.928 791.176 570.622 798.407C557.253 805.597 543.401 808.859 529.068 808.194C514.713 807.425 500.998 802.668 487.922 793.924L361.275 709.226L376.766 686.063L501.545 769.512C510.885 775.758 520.571 779.263 530.604 780.025C540.575 780.746 550.187 778.703 559.439 773.897C568.67 768.987 576.846 761.208 583.967 750.56C591.088 739.913 595.154 729.386 596.166 718.979C597.117 708.531 595.334 698.868 590.818 689.99C586.281 681.008 579.343 673.395 570.003 667.148L445.224 583.7Z"/>
<path d="M727.079 610.302L704.857 629.266L619.756 399.378L641.636 380.707L855.281 500.898L833.06 519.862L655.011 417.151L653.643 418.318L727.079 610.302ZM676.935 534.926L766.506 458.489L782.552 477.292L692.981 553.729L676.935 534.926Z"/>
<path d="M934.105 455.633L837.853 246.62L908.477 214.097C924.874 206.546 939.64 203.333 952.776 204.459C965.948 205.485 977.355 209.839 986.996 217.522C996.636 225.205 1004.29 235.204 1009.96 247.519C1015.63 259.834 1018.27 272.186 1017.87 284.574C1017.54 296.931 1013.55 308.5 1005.9 319.281C998.216 329.994 986.244 339.095 969.982 346.584L919.362 369.895L909.022 347.442L958.826 324.507C970.053 319.337 978.175 313.247 983.193 306.235C988.211 299.224 990.731 291.713 990.753 283.704C990.812 275.595 988.915 267.356 985.061 258.987C981.207 250.618 976.196 243.855 970.027 238.696C963.926 233.506 956.578 230.623 947.983 230.045C939.356 229.4 929.362 231.693 918 236.926L873.503 257.417L959.415 443.978L934.105 455.633Z"/>
<path d="M1587.47 177.275L1584.82 199.589L1496.01 189.041L1498.66 166.726L1587.47 177.275ZM1529.42 128.741L1555.75 131.868L1536.35 295.214C1535.46 302.652 1535.88 308.359 1537.6 312.334C1539.39 316.244 1541.93 319.034 1545.2 320.705C1548.56 322.311 1552.17 323.343 1556.04 323.802C1558.94 324.147 1561.33 324.281 1563.23 324.204C1565.13 324.053 1566.66 323.932 1567.8 323.842L1570.34 348.132C1568.48 348.589 1565.91 348.963 1562.63 349.252C1559.34 349.616 1555.25 349.507 1550.34 348.923C1542.9 348.04 1535.8 345.575 1529.04 341.528C1522.35 337.49 1517.05 331.92 1513.14 324.818C1509.31 317.725 1507.98 309.194 1509.17 299.227L1529.42 128.741Z"/>
<path d="M1776.17 413.651C1761.78 407.682 1750.57 399.021 1742.55 387.666C1734.59 376.339 1730.13 363.256 1729.15 348.414C1728.23 333.602 1731.19 317.962 1738.02 301.494C1744.91 284.888 1753.93 271.64 1765.08 261.751C1776.31 251.891 1788.74 245.774 1802.37 243.4C1816.08 241.055 1830.13 242.866 1844.52 248.835C1858.91 254.803 1870.08 263.45 1878.04 274.776C1886.06 286.131 1890.51 299.25 1891.4 314.131C1892.35 329.042 1889.38 344.8 1882.49 361.406C1875.67 377.874 1866.65 391.004 1855.46 400.795C1844.33 410.615 1831.91 416.697 1818.21 419.042C1804.57 421.416 1790.56 419.619 1776.17 413.651ZM1785.29 391.647C1796.23 396.181 1806.38 397.109 1815.77 394.431C1825.15 391.753 1833.43 386.551 1840.6 378.823C1847.78 371.096 1853.58 361.904 1858 351.249C1862.42 340.593 1864.84 329.961 1865.27 319.353C1865.69 308.744 1863.55 299.139 1858.85 290.539C1854.14 281.938 1846.33 275.371 1835.39 270.838C1824.46 266.304 1814.29 265.411 1804.88 268.158C1795.47 270.905 1787.16 276.177 1779.95 283.973C1772.75 291.77 1766.93 300.996 1762.51 311.651C1758.1 322.307 1755.69 332.905 1755.29 343.444C1754.89 353.983 1757.06 363.519 1761.8 372.05C1766.53 380.581 1774.36 387.114 1785.29 391.647Z"/>
<path d="M1934.27 570.016C1930.74 567.232 1927.83 564.456 1925.53 561.687C1923.18 558.977 1921.69 556.94 1921.05 555.576L1940.82 541.404C1944.86 546.688 1948.95 550.685 1953.11 553.394C1957.27 556.104 1962.08 557.083 1967.54 556.333C1973.01 555.688 1979.72 552.922 1987.68 548.037L1999.91 540.515L2057.27 364.789L2079.85 382.606L2032.06 520.083L2033.48 521.196L2156.06 442.738L2178.64 460.555L1998.64 570.425C1990.53 575.381 1982.76 578.645 1975.32 580.216C1967.83 581.846 1960.67 581.783 1953.85 580.027C1947.09 578.318 1940.57 574.981 1934.27 570.016Z"/>
<path d="M2337 709.62L2317.55 694.304C2319.88 690.76 2321.71 686.705 2323.02 682.141C2324.44 677.593 2324.7 672.593 2323.8 667.14C2322.89 661.687 2320.17 655.839 2315.64 649.595C2309.44 641.048 2302.3 635.355 2294.22 632.517C2286.25 629.696 2279.26 630.464 2273.26 634.82C2267.93 638.692 2265.12 643.69 2264.84 649.814C2264.57 655.938 2266.39 663.87 2270.32 673.61L2280.27 698.038C2286.31 712.725 2288.43 725.397 2286.63 736.051C2284.89 746.662 2279.14 755.51 2269.38 762.595C2261.38 768.403 2252.55 771.292 2242.9 771.261C2233.3 771.291 2223.71 768.535 2214.13 762.992C2204.55 757.448 2195.83 749.251 2187.95 738.401C2177.61 724.155 2172.14 710.121 2171.55 696.297C2170.95 682.474 2175.7 670.007 2185.77 658.897L2205.65 675.568C2199.54 682.964 2196.57 690.724 2196.72 698.847C2196.93 707.031 2200.22 715.518 2206.6 724.308C2213.86 734.31 2221.74 740.711 2230.26 743.51C2238.87 746.327 2246.18 745.557 2252.18 741.2C2257.03 737.68 2259.86 733.034 2260.67 727.264C2261.54 721.449 2260.24 714.431 2256.77 706.212L2245.33 678.974C2239.08 663.983 2236.96 651.177 2238.96 640.556C2241.08 629.951 2246.95 621.15 2256.59 614.153C2264.47 608.433 2273.05 605.585 2282.32 605.61C2291.64 605.695 2300.82 608.333 2309.87 613.523C2318.95 618.774 2327.06 626.31 2334.19 636.13C2344.22 649.951 2349.07 663.002 2348.73 675.282C2348.43 687.624 2344.52 699.07 2337 709.62Z"/>
</mask>
<path d="M445.224 583.7L460.714 560.537L587.361 645.235C600.437 653.98 610.05 664.87 616.202 677.905C622.332 690.836 624.628 704.852 623.09 719.953C621.489 735.013 615.671 750.046 605.635 765.052C595.6 780.057 583.928 791.176 570.622 798.407C557.253 805.597 543.401 808.859 529.068 808.194C514.713 807.425 500.998 802.668 487.922 793.924L361.275 709.226L376.766 686.063L501.545 769.512C510.885 775.758 520.571 779.263 530.604 780.025C540.575 780.746 550.187 778.703 559.439 773.897C568.67 768.987 576.846 761.208 583.967 750.56C591.088 739.913 595.154 729.386 596.166 718.979C597.117 708.531 595.334 698.868 590.818 689.99C586.281 681.008 579.343 673.395 570.003 667.148L445.224 583.7Z" fill="#3B4158"/>
<path d="M727.079 610.302L704.857 629.266L619.756 399.378L641.636 380.707L855.281 500.898L833.06 519.862L655.011 417.151L653.643 418.318L727.079 610.302ZM676.935 534.926L766.506 458.489L782.552 477.292L692.981 553.729L676.935 534.926Z" fill="#3B4158"/>
<path d="M934.105 455.633L837.853 246.62L908.477 214.097C924.874 206.546 939.64 203.333 952.776 204.459C965.948 205.485 977.355 209.839 986.996 217.522C996.636 225.205 1004.29 235.204 1009.96 247.519C1015.63 259.834 1018.27 272.186 1017.87 284.574C1017.54 296.931 1013.55 308.5 1005.9 319.281C998.216 329.994 986.244 339.095 969.982 346.584L919.362 369.895L909.022 347.442L958.826 324.507C970.053 319.337 978.175 313.247 983.193 306.235C988.211 299.224 990.731 291.713 990.753 283.704C990.812 275.595 988.915 267.356 985.061 258.987C981.207 250.618 976.196 243.855 970.027 238.696C963.926 233.506 956.578 230.623 947.983 230.045C939.356 229.4 929.362 231.693 918 236.926L873.503 257.417L959.415 443.978L934.105 455.633Z" fill="#3B4158"/>
<path d="M1587.47 177.275L1584.82 199.589L1496.01 189.041L1498.66 166.726L1587.47 177.275ZM1529.42 128.741L1555.75 131.868L1536.35 295.214C1535.46 302.652 1535.88 308.359 1537.6 312.334C1539.39 316.244 1541.93 319.034 1545.2 320.705C1548.56 322.311 1552.17 323.343 1556.04 323.802C1558.94 324.147 1561.33 324.281 1563.23 324.204C1565.13 324.053 1566.66 323.932 1567.8 323.842L1570.34 348.132C1568.48 348.589 1565.91 348.963 1562.63 349.252C1559.34 349.616 1555.25 349.507 1550.34 348.923C1542.9 348.04 1535.8 345.575 1529.04 341.528C1522.35 337.49 1517.05 331.92 1513.14 324.818C1509.31 317.725 1507.98 309.194 1509.17 299.227L1529.42 128.741Z" fill="#3B4158"/>
<path d="M1776.17 413.651C1761.78 407.682 1750.57 399.021 1742.55 387.666C1734.59 376.339 1730.13 363.256 1729.15 348.414C1728.23 333.602 1731.19 317.962 1738.02 301.494C1744.91 284.888 1753.93 271.64 1765.08 261.751C1776.31 251.891 1788.74 245.774 1802.37 243.4C1816.08 241.055 1830.13 242.866 1844.52 248.835C1858.91 254.803 1870.08 263.45 1878.04 274.776C1886.06 286.131 1890.51 299.25 1891.4 314.131C1892.35 329.042 1889.38 344.8 1882.49 361.406C1875.67 377.874 1866.65 391.004 1855.46 400.795C1844.33 410.615 1831.91 416.697 1818.21 419.042C1804.57 421.416 1790.56 419.619 1776.17 413.651ZM1785.29 391.647C1796.23 396.181 1806.38 397.109 1815.77 394.431C1825.15 391.753 1833.43 386.551 1840.6 378.823C1847.78 371.096 1853.58 361.904 1858 351.249C1862.42 340.593 1864.84 329.961 1865.27 319.353C1865.69 308.744 1863.55 299.139 1858.85 290.539C1854.14 281.938 1846.33 275.371 1835.39 270.838C1824.46 266.304 1814.29 265.411 1804.88 268.158C1795.47 270.905 1787.16 276.177 1779.95 283.973C1772.75 291.77 1766.93 300.996 1762.51 311.651C1758.1 322.307 1755.69 332.905 1755.29 343.444C1754.89 353.983 1757.06 363.519 1761.8 372.05C1766.53 380.581 1774.36 387.114 1785.29 391.647Z" fill="#3B4158"/>
<path d="M1934.27 570.016C1930.74 567.232 1927.83 564.456 1925.53 561.687C1923.18 558.977 1921.69 556.94 1921.05 555.576L1940.82 541.404C1944.86 546.688 1948.95 550.685 1953.11 553.394C1957.27 556.104 1962.08 557.083 1967.54 556.333C1973.01 555.688 1979.72 552.922 1987.68 548.037L1999.91 540.515L2057.27 364.789L2079.85 382.606L2032.06 520.083L2033.48 521.196L2156.06 442.738L2178.64 460.555L1998.64 570.425C1990.53 575.381 1982.76 578.645 1975.32 580.216C1967.83 581.846 1960.67 581.783 1953.85 580.027C1947.09 578.318 1940.57 574.981 1934.27 570.016Z" fill="#3B4158"/>
<path d="M2337 709.62L2317.55 694.304C2319.88 690.76 2321.71 686.705 2323.02 682.141C2324.44 677.593 2324.7 672.593 2323.8 667.14C2322.89 661.687 2320.17 655.839 2315.64 649.595C2309.44 641.048 2302.3 635.355 2294.22 632.517C2286.25 629.696 2279.26 630.464 2273.26 634.82C2267.93 638.692 2265.12 643.69 2264.84 649.814C2264.57 655.938 2266.39 663.87 2270.32 673.61L2280.27 698.038C2286.31 712.725 2288.43 725.397 2286.63 736.051C2284.89 746.662 2279.14 755.51 2269.38 762.595C2261.38 768.403 2252.55 771.292 2242.9 771.261C2233.3 771.291 2223.71 768.535 2214.13 762.992C2204.55 757.448 2195.83 749.251 2187.95 738.401C2177.61 724.155 2172.14 710.121 2171.55 696.297C2170.95 682.474 2175.7 670.007 2185.77 658.897L2205.65 675.568C2199.54 682.964 2196.57 690.724 2196.72 698.847C2196.93 707.031 2200.22 715.518 2206.6 724.308C2213.86 734.31 2221.74 740.711 2230.26 743.51C2238.87 746.327 2246.18 745.557 2252.18 741.2C2257.03 737.68 2259.86 733.034 2260.67 727.264C2261.54 721.449 2260.24 714.431 2256.77 706.212L2245.33 678.974C2239.08 663.983 2236.96 651.177 2238.96 640.556C2241.08 629.951 2246.95 621.15 2256.59 614.153C2264.47 608.433 2273.05 605.585 2282.32 605.61C2291.64 605.695 2300.82 608.333 2309.87 613.523C2318.95 618.774 2327.06 626.31 2334.19 636.13C2344.22 649.951 2349.07 663.002 2348.73 675.282C2348.43 687.624 2344.52 699.07 2337 709.62Z" fill="#3B4158"/>
<path d="M445.224 583.7L460.714 560.537L587.361 645.235C600.437 653.98 610.05 664.87 616.202 677.905C622.332 690.836 624.628 704.852 623.09 719.953C621.489 735.013 615.671 750.046 605.635 765.052C595.6 780.057 583.928 791.176 570.622 798.407C557.253 805.597 543.401 808.859 529.068 808.194C514.713 807.425 500.998 802.668 487.922 793.924L361.275 709.226L376.766 686.063L501.545 769.512C510.885 775.758 520.571 779.263 530.604 780.025C540.575 780.746 550.187 778.703 559.439 773.897C568.67 768.987 576.846 761.208 583.967 750.56C591.088 739.913 595.154 729.386 596.166 718.979C597.117 708.531 595.334 698.868 590.818 689.99C586.281 681.008 579.343 673.395 570.003 667.148L445.224 583.7Z" stroke="#3B4158" stroke-width="32" mask="url(#path-3-outside-1_1519_1609)"/>
<path d="M727.079 610.302L704.857 629.266L619.756 399.378L641.636 380.707L855.281 500.898L833.06 519.862L655.011 417.151L653.643 418.318L727.079 610.302ZM676.935 534.926L766.506 458.489L782.552 477.292L692.981 553.729L676.935 534.926Z" stroke="#3B4158" stroke-width="32" mask="url(#path-3-outside-1_1519_1609)"/>
<path d="M934.105 455.633L837.853 246.62L908.477 214.097C924.874 206.546 939.64 203.333 952.776 204.459C965.948 205.485 977.355 209.839 986.996 217.522C996.636 225.205 1004.29 235.204 1009.96 247.519C1015.63 259.834 1018.27 272.186 1017.87 284.574C1017.54 296.931 1013.55 308.5 1005.9 319.281C998.216 329.994 986.244 339.095 969.982 346.584L919.362 369.895L909.022 347.442L958.826 324.507C970.053 319.337 978.175 313.247 983.193 306.235C988.211 299.224 990.731 291.713 990.753 283.704C990.812 275.595 988.915 267.356 985.061 258.987C981.207 250.618 976.196 243.855 970.027 238.696C963.926 233.506 956.578 230.623 947.983 230.045C939.356 229.4 929.362 231.693 918 236.926L873.503 257.417L959.415 443.978L934.105 455.633Z" stroke="#3B4158" stroke-width="32" mask="url(#path-3-outside-1_1519_1609)"/>
<path d="M1587.47 177.275L1584.82 199.589L1496.01 189.041L1498.66 166.726L1587.47 177.275ZM1529.42 128.741L1555.75 131.868L1536.35 295.214C1535.46 302.652 1535.88 308.359 1537.6 312.334C1539.39 316.244 1541.93 319.034 1545.2 320.705C1548.56 322.311 1552.17 323.343 1556.04 323.802C1558.94 324.147 1561.33 324.281 1563.23 324.204C1565.13 324.053 1566.66 323.932 1567.8 323.842L1570.34 348.132C1568.48 348.589 1565.91 348.963 1562.63 349.252C1559.34 349.616 1555.25 349.507 1550.34 348.923C1542.9 348.04 1535.8 345.575 1529.04 341.528C1522.35 337.49 1517.05 331.92 1513.14 324.818C1509.31 317.725 1507.98 309.194 1509.17 299.227L1529.42 128.741Z" stroke="#3B4158" stroke-width="32" mask="url(#path-3-outside-1_1519_1609)"/>
<path d="M1776.17 413.651C1761.78 407.682 1750.57 399.021 1742.55 387.666C1734.59 376.339 1730.13 363.256 1729.15 348.414C1728.23 333.602 1731.19 317.962 1738.02 301.494C1744.91 284.888 1753.93 271.64 1765.08 261.751C1776.31 251.891 1788.74 245.774 1802.37 243.4C1816.08 241.055 1830.13 242.866 1844.52 248.835C1858.91 254.803 1870.08 263.45 1878.04 274.776C1886.06 286.131 1890.51 299.25 1891.4 314.131C1892.35 329.042 1889.38 344.8 1882.49 361.406C1875.67 377.874 1866.65 391.004 1855.46 400.795C1844.33 410.615 1831.91 416.697 1818.21 419.042C1804.57 421.416 1790.56 419.619 1776.17 413.651ZM1785.29 391.647C1796.23 396.181 1806.38 397.109 1815.77 394.431C1825.15 391.753 1833.43 386.551 1840.6 378.823C1847.78 371.096 1853.58 361.904 1858 351.249C1862.42 340.593 1864.84 329.961 1865.27 319.353C1865.69 308.744 1863.55 299.139 1858.85 290.539C1854.14 281.938 1846.33 275.371 1835.39 270.838C1824.46 266.304 1814.29 265.411 1804.88 268.158C1795.47 270.905 1787.16 276.177 1779.95 283.973C1772.75 291.77 1766.93 300.996 1762.51 311.651C1758.1 322.307 1755.69 332.905 1755.29 343.444C1754.89 353.983 1757.06 363.519 1761.8 372.05C1766.53 380.581 1774.36 387.114 1785.29 391.647Z" stroke="#3B4158" stroke-width="32" mask="url(#path-3-outside-1_1519_1609)"/>
<path d="M1934.27 570.016C1930.74 567.232 1927.83 564.456 1925.53 561.687C1923.18 558.977 1921.69 556.94 1921.05 555.576L1940.82 541.404C1944.86 546.688 1948.95 550.685 1953.11 553.394C1957.27 556.104 1962.08 557.083 1967.54 556.333C1973.01 555.688 1979.72 552.922 1987.68 548.037L1999.91 540.515L2057.27 364.789L2079.85 382.606L2032.06 520.083L2033.48 521.196L2156.06 442.738L2178.64 460.555L1998.64 570.425C1990.53 575.381 1982.76 578.645 1975.32 580.216C1967.83 581.846 1960.67 581.783 1953.85 580.027C1947.09 578.318 1940.57 574.981 1934.27 570.016Z" stroke="#3B4158" stroke-width="32" mask="url(#path-3-outside-1_1519_1609)"/>
<path d="M2337 709.62L2317.55 694.304C2319.88 690.76 2321.71 686.705 2323.02 682.141C2324.44 677.593 2324.7 672.593 2323.8 667.14C2322.89 661.687 2320.17 655.839 2315.64 649.595C2309.44 641.048 2302.3 635.355 2294.22 632.517C2286.25 629.696 2279.26 630.464 2273.26 634.82C2267.93 638.692 2265.12 643.69 2264.84 649.814C2264.57 655.938 2266.39 663.87 2270.32 673.61L2280.27 698.038C2286.31 712.725 2288.43 725.397 2286.63 736.051C2284.89 746.662 2279.14 755.51 2269.38 762.595C2261.38 768.403 2252.55 771.292 2242.9 771.261C2233.3 771.291 2223.71 768.535 2214.13 762.992C2204.55 757.448 2195.83 749.251 2187.95 738.401C2177.61 724.155 2172.14 710.121 2171.55 696.297C2170.95 682.474 2175.7 670.007 2185.77 658.897L2205.65 675.568C2199.54 682.964 2196.57 690.724 2196.72 698.847C2196.93 707.031 2200.22 715.518 2206.6 724.308C2213.86 734.31 2221.74 740.711 2230.26 743.51C2238.87 746.327 2246.18 745.557 2252.18 741.2C2257.03 737.68 2259.86 733.034 2260.67 727.264C2261.54 721.449 2260.24 714.431 2256.77 706.212L2245.33 678.974C2239.08 663.983 2236.96 651.177 2238.96 640.556C2241.08 629.951 2246.95 621.15 2256.59 614.153C2264.47 608.433 2273.05 605.585 2282.32 605.61C2291.64 605.695 2300.82 608.333 2309.87 613.523C2318.95 618.774 2327.06 626.31 2334.19 636.13C2344.22 649.951 2349.07 663.002 2348.73 675.282C2348.43 687.624 2344.52 699.07 2337 709.62Z" stroke="#3B4158" stroke-width="32" mask="url(#path-3-outside-1_1519_1609)"/>
<defs>
<clipPath id="clip0_1519_1609">
<rect width="1835.68" height="1220.67" fill="white" transform="translate(446.039 514.092)"/>
</clipPath>
</defs>
</svg>
