<svg width="1230" height="600" viewBox="0 0 1230 600" fill="none" xmlns="http://www.w3.org/2000/svg">
<path d="M130.786 455.76C112.499 460.596 97.1163 459.091 84.6392 451.246C72.3935 443.339 63.7608 429.894 58.7411 410.912L24.2151 280.354C19.1954 261.372 20.0536 245.418 26.7898 232.491C33.7575 219.503 46.385 210.591 64.6724 205.755C82.9598 200.919 98.2264 202.454 110.472 210.362C122.949 218.207 131.698 231.621 136.717 250.603L143.512 276.298L107.401 285.848L99.9628 257.722C95.9837 242.676 87.6283 236.836 74.8966 240.203C62.1648 243.569 57.7885 252.776 61.7675 267.823L97.6709 403.589C101.589 418.405 109.914 424.129 122.645 420.762C135.377 417.395 139.784 408.304 135.866 393.489L126.041 356.335L162.153 346.785L171.243 381.161C176.263 400.143 175.289 416.128 168.321 429.116C161.585 442.043 149.073 450.924 130.786 455.76Z" fill="#CA3634"/>
<path d="M152.078 188.187L190.735 180.034L242.616 426.039L203.958 434.192L152.078 188.187Z" fill="#CA3634"/>
<path d="M229.618 171.717L278.618 164.256L339.262 307.248L339.972 307.139L317.321 158.364L352.118 153.066L389.96 401.617L349.837 407.726L275.342 233.419L274.632 233.528L302.257 414.97L267.46 420.268L229.618 171.717Z" fill="#CA3634"/>
<path d="M391.526 148.89L498.94 140.382L501.776 176.186L433.747 181.575L438.994 247.813L493.058 243.531L495.894 279.335L441.83 283.617L447.927 360.597L515.955 355.208L518.791 391.013L411.378 399.521L391.526 148.89Z" fill="#CA3634"/>
<path d="M586.533 393.605C567.378 393.784 552.842 388.532 542.925 377.85C533.005 366.927 527.95 351.29 527.76 330.939L527.626 316.573L564.977 316.224L565.138 333.463C565.29 349.744 572.19 357.821 585.838 357.694C592.542 357.631 597.552 355.669 600.869 351.807C604.422 347.703 606.157 341.221 606.075 332.362C605.976 321.827 603.496 312.631 598.633 304.775C593.769 296.679 584.819 287.064 571.785 275.932C555.369 261.718 543.875 248.895 537.303 237.462C530.729 225.791 527.373 212.652 527.237 198.046C527.051 178.174 531.936 162.803 541.892 151.934C551.845 140.827 566.399 135.183 585.554 135.004C604.469 134.828 618.767 140.201 628.447 151.126C638.364 161.809 643.418 177.326 643.608 197.678L643.705 208.093L606.354 208.442L606.233 195.513C606.153 186.893 604.418 180.683 601.031 176.884C597.641 172.845 592.713 170.855 586.248 170.916C573.08 171.039 566.57 179.121 566.72 195.163C566.805 204.262 569.279 212.739 574.141 220.596C579.243 228.45 588.311 237.944 601.346 249.076C618.001 263.288 629.496 276.231 635.831 287.905C642.166 299.579 645.407 313.317 645.554 329.12C645.747 349.711 640.747 365.562 630.554 376.672C620.6 387.78 605.927 393.424 586.533 393.605Z" fill="#CA3634"/>
<path d="M670.715 138.623L710.491 141.314L723.128 337.642L723.844 337.69L762.81 144.853L799.003 147.302L744.047 395.575L691.729 392.035L670.715 138.623Z" fill="#CA3634"/>
<path d="M828.004 150.862L934.655 166.212L929.539 201.762L861.993 192.041L852.528 257.809L906.208 265.535L901.092 301.085L847.411 293.359L836.411 369.792L903.956 379.513L898.84 415.064L792.189 399.714L828.004 150.862Z" fill="#CA3634"/>
<path d="M969.735 173.051L1008.29 181.688L961.176 391.975L1024.61 406.187L1016.76 441.235L914.771 418.386L969.735 173.051Z" fill="#CA3634"/>
<path d="M1121.08 247.806L1081.62 235.581L1092.26 201.273L1208.9 237.417L1198.27 271.725L1158.82 259.499L1095.03 465.343L1057.29 453.649L1121.08 247.806Z" fill="#CA3634"/>
</svg>
