<svg width="1273" height="1210" viewBox="0 0 1273 1210" fill="none" xmlns="http://www.w3.org/2000/svg">
<g clip-path="url(#clip0_1487_1590)">
<path d="M561.092 1042.11C549.455 1014.18 533.745 978.691 513.961 935.633C495.342 892.576 474.977 846.027 452.866 795.987C430.755 745.947 406.899 694.743 381.297 642.375C356.859 588.844 333.584 538.804 311.473 492.255C289.363 444.542 268.416 402.066 248.632 364.827C230.013 327.588 214.884 299.077 203.247 279.294C190.446 416.613 179.973 565.569 171.827 726.163C163.681 885.593 185.932 416.613 180.113 579.534H19.9608C24.6157 474.799 -5.05918 999.638 0.759437 893.739C6.57805 786.677 12.9784 681.942 19.9608 579.534C28.1068 475.963 36.253 375.301 44.3991 277.548C53.7088 179.795 63.6005 87.2792 74.074 0H222.449C253.869 51.2038 287.617 111.717 323.693 181.541C359.768 251.364 395.843 324.679 431.919 401.484C467.994 477.126 502.906 553.35 536.654 630.156C570.402 705.798 601.241 775.04 629.17 837.881C657.099 775.04 687.938 705.798 721.686 630.156C755.434 553.35 790.346 477.126 826.421 401.484C862.496 324.679 898.572 251.364 934.647 181.541C970.722 111.717 1004.47 51.2038 1035.89 0H1184.27C1223.83 389.847 1253.51 793.077 1273.29 1209.69H1107.46C1101.64 1046.77 1094.66 885.593 1086.51 726.163C1078.37 565.569 1067.89 416.613 1055.09 279.294C1043.46 299.077 1027.75 327.588 1007.96 364.827C989.342 402.066 968.977 444.542 946.866 492.255C924.756 538.804 900.899 588.844 875.297 642.375C850.859 694.743 827.585 745.947 805.474 795.987C783.363 846.027 762.416 892.576 742.633 935.633C724.013 978.691 708.885 1014.18 697.248 1042.11H561.092Z" fill="url(#paint0_linear_1487_1590)"/>
</g>
<defs>
<linearGradient id="paint0_linear_1487_1590" x1="636.645" y1="0" x2="636.645" y2="1209.69" gradientUnits="userSpaceOnUse">
<stop stop-color="#39A228"/>
<stop offset="1" stop-color="#31C4CD"/>
</linearGradient>
<clipPath id="clip0_1487_1590">
<rect width="1273" height="1210" fill="white"/>
</clipPath>
</defs>
</svg>
